<svg xmlns="http://www.w3.org/2000/svg" xmlns:xlink="http://www.w3.org/1999/xlink" width="2880" zoomAndPan="magnify" viewBox="0 0 2160 719.999996" height="960" preserveAspectRatio="xMidYMid meet" version="1.0"><defs><clipPath id="e9245afb89"><path d="M 240.027344 137.136719 L 513 137.136719 L 513 423.144531 L 240.027344 423.144531 Z M 240.027344 137.136719 " clip-rule="nonzero"/></clipPath><clipPath id="8c851b8afc"><path d="M 512.136719 167.585938 L 240.144531 167.585938 L 240.144531 137.25 L 512.136719 137.25 Z M 457.785156 278.773438 C 457.785156 238.257812 438.589844 218.011719 400.320312 218.011719 C 371.933594 218.011719 348.273438 232.894531 329.230469 262.601562 C 312.28125 288.921875 303.898438 317.011719 303.898438 346.71875 L 303.898438 420.414062 L 262.394531 398.582031 L 262.394531 208.101562 L 305.871094 208.101562 L 305.871094 238.257812 L 328.363281 221.308594 C 348.273438 206.304688 369.265625 198.789062 391.394531 198.789062 C 421.402344 198.789062 446.285156 210.496094 466.050781 233.792969 C 484.675781 255.804688 493.898438 282.007812 493.898438 312.550781 C 493.898438 350.910156 477.667969 387.742188 445.296875 423.078125 L 396.425781 392.445312 C 411.609375 377.441406 424.546875 363.578125 435.207031 350.910156 C 450.207031 332.972656 457.695312 308.988281 457.695312 278.953125 L 457.753906 278.773438 Z M 457.785156 278.773438 " clip-rule="nonzero"/></clipPath><clipPath id="b1c8f322ef"><path d="M 494 137.136719 L 799 137.136719 L 799 582.863281 L 494 582.863281 Z M 494 137.136719 " clip-rule="nonzero"/></clipPath><clipPath id="b61e26c93f"><path d="M 798.890625 137.25 L 798.382812 167.585938 L 584.722656 167.585938 L 585.230469 316.980469 C 585.230469 338.992188 589.035156 354.953125 596.671875 364.925781 C 605.265625 375.914062 620.328125 381.875 641.738281 382.921875 C 655.363281 383.582031 669.078125 379.117188 682.734375 369.476562 C 694.890625 361.0625 704.890625 350.3125 712.859375 337.316406 C 721.453125 323.089844 725.792969 309.226562 725.792969 295.78125 L 725.253906 200.347656 L 778.078125 218.523438 L 778.078125 477.847656 C 778.078125 509.410156 763.523438 535.253906 734.566406 555.167969 C 707.738281 573.550781 676.324219 582.714844 640.269531 582.714844 C 579.183594 582.714844 535.761719 566.097656 509.949219 532.765625 C 499.46875 519.320312 494.167969 507.734375 494.167969 498.089844 C 494.347656 477.007812 506.175781 459.28125 529.59375 444.90625 C 550.34375 432.210938 571.875 425.894531 594.09375 425.894531 L 626.226562 468.984375 C 597.210938 470.992188 571.21875 477.1875 548.277344 487.488281 C 533.277344 494.226562 525.789062 502.882812 525.789062 513.574219 C 527.675781 528.964844 539.234375 542.5 560.558594 554.328125 C 573.222656 561.394531 589.574219 564.929688 609.605469 564.929688 C 655.632812 564.929688 690.398438 549.984375 713.816406 520.160156 C 724.925781 505.9375 730.496094 489.347656 730.496094 470.542969 L 730.496094 367.46875 C 719.503906 385.40625 690.21875 394.390625 642.726562 394.390625 C 602.71875 394.390625 572.386719 380.734375 551.84375 353.367188 C 541.75 340.039062 536.71875 324.828125 536.71875 307.757812 L 536.71875 167.585938 L 500.695312 167.585938 L 500.695312 137.25 Z M 798.890625 137.25 " clip-rule="nonzero"/></clipPath><clipPath id="848501e5ae"><path d="M 792 137.136719 L 1049 137.136719 L 1049 422 L 792 422 Z M 792 137.136719 " clip-rule="nonzero"/></clipPath><clipPath id="2f065faaf2"><path d="M 1048.632812 167.585938 L 792.8125 167.585938 L 792.8125 137.25 L 1048.664062 137.25 L 1048.664062 167.585938 Z M 1027.613281 258.558594 C 1027.613281 268.53125 1021.59375 279.789062 1009.644531 292.21875 C 999.554688 302.90625 988.890625 310.785156 977.722656 315.964844 L 939.871094 272.992188 C 951.3125 271.945312 962.179688 267.753906 972.511719 260.234375 C 984.28125 251.820312 990.148438 242.238281 990.148438 231.429688 C 990.148438 225.679688 986.46875 220.679688 979.039062 216.664062 C 972.632812 212.984375 966.3125 211.097656 960.023438 211.097656 C 947.027344 211.097656 933.132812 217.382812 918.339844 229.933594 C 888.097656 255.234375 872.976562 283.175781 872.976562 313.929688 L 872.976562 421.429688 L 824.433594 396.066406 L 824.433594 208.609375 L 873.484375 208.609375 L 873.484375 227.894531 C 880.730469 220.648438 895.734375 213.011719 918.550781 205.046875 C 929.660156 201.15625 941.101562 199.148438 953.019531 199.148438 C 977.453125 199.148438 998.207031 208.519531 1015.214844 227.355469 C 1023.480469 236.488281 1027.613281 246.820312 1027.613281 258.46875 L 1027.671875 258.527344 Z M 1027.613281 258.558594 " clip-rule="nonzero"/></clipPath><clipPath id="af52abdaf2"><path d="M 1037 137.136719 L 1292 137.136719 L 1292 415 L 1037 415 Z M 1037 137.136719 " clip-rule="nonzero"/></clipPath><clipPath id="d88ea71612"><path d="M 1291.308594 167.585938 L 1122.71875 167.585938 L 1122.71875 208.160156 C 1123.375 208.160156 1124.066406 208.550781 1124.722656 209.210938 L 1126.011719 210.257812 L 1124.453125 210.199219 C 1124.273438 209.148438 1136.792969 206.453125 1162.003906 201.992188 L 1189.613281 199.328125 C 1227.496094 199.328125 1251.871094 210.019531 1262.710938 231.277344 C 1269.898438 245.503906 1273.492188 274.101562 1273.492188 317.132812 L 1273.492188 414.574219 C 1269.988281 413.226562 1256.542969 407.777344 1233.273438 398.074219 L 1232.167969 389.210938 C 1221.058594 392.894531 1213.691406 396.90625 1207.941406 399.570312 C 1189.765625 408.253906 1168.5625 412.507812 1144.515625 412.507812 C 1111.21875 412.507812 1085.554688 402.027344 1067.527344 381.066406 C 1058.722656 370.972656 1054.414062 359.714844 1054.414062 347.226562 C 1054.414062 333.242188 1061.328125 319.289062 1075.105469 305.363281 C 1101.996094 278.5625 1135.292969 265.117188 1175.089844 265.117188 C 1199.199219 265.117188 1218.601562 270.6875 1233.273438 281.796875 L 1233.273438 258.558594 C 1225.847656 249.035156 1218.660156 242.777344 1211.683594 239.542969 C 1204.707031 236.308594 1195.066406 234.871094 1182.90625 235.203125 C 1155.746094 235.769531 1130.863281 240.773438 1108.253906 250.144531 L 1078.636719 261.582031 L 1078.636719 242.777344 C 1080.824219 240.953125 1084.058594 238.195312 1088.191406 234.484375 L 1089.296875 233.136719 L 1089.476562 167.585938 L 1037.671875 167.585938 L 1037.671875 137.25 L 1291.25 137.25 Z M 1233.335938 327.941406 C 1233.335938 320.515625 1224.472656 313.839844 1206.773438 307.9375 C 1192.101562 303.085938 1179.882812 300.691406 1170.121094 300.691406 C 1134.515625 300.691406 1106.007812 313.507812 1084.597656 339.140625 C 1075.941406 349.441406 1071.660156 357.917969 1071.660156 364.503906 C 1075.222656 376.871094 1089.117188 383.011719 1113.34375 383.011719 C 1144.695312 383.011719 1173.382812 375.195312 1199.378906 359.445312 C 1222.015625 345.789062 1233.304688 335.308594 1233.304688 328.003906 L 1233.304688 327.941406 Z M 1233.335938 327.941406 " clip-rule="nonzero"/></clipPath><clipPath id="a3ae8cede4"><path d="M 1285 137.136719 L 1676 137.136719 L 1676 421 L 1285 421 Z M 1285 137.136719 " clip-rule="nonzero"/></clipPath><clipPath id="94c1027471"><path d="M 1675.835938 167.585938 L 1592.316406 167.585938 L 1592.855469 203.128906 C 1615.792969 211.546875 1632.355469 222.59375 1642.445312 236.25 C 1652.925781 250.472656 1658.226562 269.640625 1658.226562 293.773438 C 1658.226562 328.601562 1644.273438 358.484375 1616.394531 383.460938 C 1611.214844 388.191406 1603.21875 394.332031 1592.347656 401.964844 C 1579.023438 411.398438 1570.578125 416.128906 1567.074219 416.128906 C 1563.511719 416.128906 1547.21875 401.246094 1518.203125 371.542969 C 1536.109375 370.496094 1554.796875 364.804688 1574.171875 354.324219 C 1592.527344 344.5 1608.160156 332.464844 1621.035156 318.359375 C 1634.808594 303.207031 1641.726562 287.035156 1641.726562 269.96875 C 1641.726562 253.140625 1632.355469 241.429688 1613.667969 234.78125 C 1604.566406 231.609375 1595.582031 230.199219 1586.597656 230.5 C 1531.917969 232.6875 1498.441406 264.457031 1486.070312 325.9375 L 1434.296875 304.703125 C 1434.296875 290.539062 1439.71875 274.609375 1450.648438 257.09375 L 1456.84375 247.058594 C 1456.964844 238.257812 1445.585938 234.242188 1422.859375 234.242188 C 1393.632812 234.242188 1370.960938 247.121094 1354.792969 272.753906 C 1347.753906 284.074219 1344.191406 295.390625 1344.191406 306.710938 C 1344.191406 330.398438 1355.0625 352.765625 1376.832031 373.878906 L 1424.925781 420.472656 C 1395.578125 410.320312 1368.296875 395.617188 1343.234375 376.421875 C 1309.636719 350.730469 1292.804688 323.242188 1292.804688 293.804688 C 1292.804688 256.671875 1311.492188 228.972656 1348.984375 210.738281 C 1365.332031 202.769531 1382.222656 198.820312 1399.589844 198.820312 C 1421.898438 198.820312 1444.179688 205.496094 1466.429688 218.820312 C 1474.84375 223.941406 1479.695312 226.636719 1481.101562 226.96875 L 1523.324219 208.96875 C 1531.46875 205.617188 1539.613281 203.28125 1547.878906 202.113281 L 1548.386719 167.617188 L 1285.289062 167.617188 L 1285.289062 137.25 L 1675.953125 137.25 Z M 1675.835938 167.585938 " clip-rule="nonzero"/></clipPath><clipPath id="577dee6b7b"><path d="M 1666 137.136719 L 1920 137.136719 L 1920 415 L 1666 415 Z M 1666 137.136719 " clip-rule="nonzero"/></clipPath><clipPath id="99ecd3742d"><path d="M 1919.859375 167.585938 L 1751.265625 167.585938 L 1751.265625 208.160156 C 1751.925781 208.160156 1752.613281 208.550781 1753.273438 209.210938 L 1754.5625 210.257812 L 1753.003906 210.199219 C 1752.824219 209.148438 1765.339844 206.453125 1790.554688 201.992188 L 1818.164062 199.328125 C 1856.042969 199.328125 1880.421875 210.019531 1891.261719 231.277344 C 1898.445312 245.503906 1902.039062 274.101562 1902.039062 317.132812 L 1902.039062 414.574219 C 1898.535156 413.226562 1885.089844 407.777344 1861.824219 398.074219 L 1860.714844 389.210938 C 1849.605469 392.894531 1842.238281 396.90625 1836.492188 399.570312 C 1818.3125 408.253906 1797.113281 412.507812 1773.066406 412.507812 C 1739.765625 412.507812 1714.105469 402.027344 1696.078125 381.066406 C 1687.273438 370.972656 1682.960938 359.714844 1682.960938 347.226562 C 1682.960938 333.242188 1689.878906 319.289062 1703.652344 305.363281 C 1730.542969 278.5625 1763.84375 265.117188 1803.640625 265.117188 C 1827.746094 265.117188 1847.152344 270.6875 1861.824219 281.796875 L 1861.824219 258.558594 C 1854.398438 249.035156 1847.210938 242.777344 1840.234375 239.542969 C 1833.257812 236.308594 1823.613281 234.871094 1811.457031 235.203125 C 1784.296875 235.769531 1759.410156 240.773438 1736.804688 250.144531 L 1707.1875 261.582031 L 1707.1875 242.777344 C 1709.375 240.953125 1712.605469 238.195312 1716.738281 234.484375 L 1717.847656 233.136719 L 1718.027344 167.585938 L 1666.222656 167.585938 L 1666.222656 137.25 L 1919.796875 137.25 Z M 1861.882812 327.941406 C 1861.882812 320.515625 1853.019531 313.839844 1835.324219 307.9375 C 1820.648438 303.085938 1808.433594 300.691406 1798.667969 300.691406 C 1763.066406 300.691406 1734.558594 313.507812 1713.144531 339.140625 C 1704.492188 349.441406 1700.210938 357.917969 1700.210938 364.503906 C 1703.773438 376.871094 1717.667969 383.011719 1741.894531 383.011719 C 1773.246094 383.011719 1801.933594 375.195312 1827.925781 359.445312 C 1850.535156 345.789062 1861.855469 335.308594 1861.855469 328.003906 L 1861.855469 327.941406 Z M 1861.882812 327.941406 " clip-rule="nonzero"/></clipPath></defs><g clip-path="url(#e9245afb89)"><g clip-path="url(#8c851b8afc)"><path fill="#9d542a" d="M 225.171875 122.277344 L 1935.648438 122.277344 L 1935.648438 597.722656 L 225.171875 597.722656 Z M 225.171875 122.277344 " fill-opacity="1" fill-rule="nonzero"/></g></g><g clip-path="url(#b1c8f322ef)"><g clip-path="url(#b61e26c93f)"><path fill="#9d542a" d="M 225.171875 122.277344 L 1935.648438 122.277344 L 1935.648438 597.722656 L 225.171875 597.722656 Z M 225.171875 122.277344 " fill-opacity="1" fill-rule="nonzero"/></g></g><g clip-path="url(#848501e5ae)"><g clip-path="url(#2f065faaf2)"><path fill="#005180" d="M 225.171875 122.277344 L 1935.648438 122.277344 L 1935.648438 597.722656 L 225.171875 597.722656 Z M 225.171875 122.277344 " fill-opacity="1" fill-rule="nonzero"/></g></g><g clip-path="url(#af52abdaf2)"><g clip-path="url(#d88ea71612)"><path fill="#005180" d="M 225.171875 122.277344 L 1935.648438 122.277344 L 1935.648438 597.722656 L 225.171875 597.722656 Z M 225.171875 122.277344 " fill-opacity="1" fill-rule="nonzero"/></g></g><g clip-path="url(#a3ae8cede4)"><g clip-path="url(#94c1027471)"><path fill="#005180" d="M 225.171875 122.277344 L 1935.648438 122.277344 L 1935.648438 597.722656 L 225.171875 597.722656 Z M 225.171875 122.277344 " fill-opacity="1" fill-rule="nonzero"/></g></g><g clip-path="url(#577dee6b7b)"><g clip-path="url(#99ecd3742d)"><path fill="#005180" d="M 225.171875 122.277344 L 1935.648438 122.277344 L 1935.648438 597.722656 L 225.171875 597.722656 Z M 225.171875 122.277344 " fill-opacity="1" fill-rule="nonzero"/></g></g></svg>